<svg width="650" height="330" viewBox="0 0 650 330" fill="none" xmlns="http://www.w3.org/2000/svg">
<g filter="url(#filter0_b)">
<rect x="5" y="5" width="640" height="320" fill="#FEF4FF"/>
<path d="M110.145 141.809C110.145 140.148 109.559 138.879 108.387 138C107.215 137.102 105.105 136.164 102.059 135.188C99.0117 134.191 96.5996 133.215 94.8223 132.258C89.9785 129.641 87.5566 126.115 87.5566 121.682C87.5566 119.377 88.2012 117.326 89.4902 115.529C90.7988 113.713 92.6641 112.297 95.0859 111.281C97.5273 110.266 100.262 109.758 103.289 109.758C106.336 109.758 109.051 110.314 111.434 111.428C113.816 112.521 115.662 114.074 116.971 116.086C118.299 118.098 118.963 120.383 118.963 122.941H110.174C110.174 120.988 109.559 119.475 108.328 118.4C107.098 117.307 105.369 116.76 103.143 116.76C100.994 116.76 99.3242 117.219 98.1328 118.137C96.9414 119.035 96.3457 120.227 96.3457 121.711C96.3457 123.098 97.0391 124.26 98.4258 125.197C99.832 126.135 101.893 127.014 104.607 127.834C109.607 129.338 113.25 131.203 115.535 133.43C117.82 135.656 118.963 138.43 118.963 141.75C118.963 145.441 117.566 148.342 114.773 150.451C111.98 152.541 108.221 153.586 103.494 153.586C100.213 153.586 97.2246 152.99 94.5293 151.799C91.834 150.588 89.7734 148.938 88.3477 146.848C86.9414 144.758 86.2383 142.336 86.2383 139.582H95.0566C95.0566 144.289 97.8691 146.643 103.494 146.643C105.584 146.643 107.215 146.223 108.387 145.383C109.559 144.523 110.145 143.332 110.145 141.809ZM137.566 146.76C139.129 146.76 140.398 146.33 141.375 145.471C142.352 144.611 142.859 143.469 142.898 142.043H150.838C150.818 144.191 150.232 146.164 149.08 147.961C147.928 149.738 146.346 151.125 144.334 152.121C142.342 153.098 140.135 153.586 137.713 153.586C133.182 153.586 129.607 152.15 126.99 149.279C124.373 146.389 123.064 142.404 123.064 137.326V136.77C123.064 131.887 124.363 127.99 126.961 125.08C129.559 122.17 133.123 120.715 137.654 120.715C141.619 120.715 144.793 121.848 147.176 124.113C149.578 126.359 150.799 129.357 150.838 133.107H142.898C142.859 131.467 142.352 130.139 141.375 129.123C140.398 128.088 139.109 127.57 137.508 127.57C135.535 127.57 134.041 128.293 133.025 129.738C132.029 131.164 131.531 133.488 131.531 136.711V137.59C131.531 140.852 132.029 143.195 133.025 144.621C134.021 146.047 135.535 146.76 137.566 146.76ZM163.934 124.758C166.18 122.062 169.002 120.715 172.4 120.715C179.275 120.715 182.762 124.709 182.859 132.697V153H174.393V132.932C174.393 131.115 174.002 129.777 173.221 128.918C172.439 128.039 171.141 127.6 169.324 127.6C166.844 127.6 165.047 128.557 163.934 130.471V153H155.467V108H163.934V124.758ZM187.928 136.857C187.928 133.713 188.533 130.91 189.744 128.449C190.955 125.988 192.693 124.084 194.959 122.736C197.244 121.389 199.891 120.715 202.898 120.715C207.176 120.715 210.662 122.023 213.357 124.641C216.072 127.258 217.586 130.812 217.898 135.305L217.957 137.473C217.957 142.336 216.6 146.242 213.885 149.191C211.17 152.121 207.527 153.586 202.957 153.586C198.387 153.586 194.734 152.121 192 149.191C189.285 146.262 187.928 142.277 187.928 137.238V136.857ZM196.395 137.473C196.395 140.48 196.961 142.785 198.094 144.387C199.227 145.969 200.848 146.76 202.957 146.76C205.008 146.76 206.609 145.979 207.762 144.416C208.914 142.834 209.49 140.314 209.49 136.857C209.49 133.908 208.914 131.623 207.762 130.002C206.609 128.381 204.988 127.57 202.898 127.57C200.828 127.57 199.227 128.381 198.094 130.002C196.961 131.604 196.395 134.094 196.395 137.473ZM221.854 136.857C221.854 133.713 222.459 130.91 223.67 128.449C224.881 125.988 226.619 124.084 228.885 122.736C231.17 121.389 233.816 120.715 236.824 120.715C241.102 120.715 244.588 122.023 247.283 124.641C249.998 127.258 251.512 130.812 251.824 135.305L251.883 137.473C251.883 142.336 250.525 146.242 247.811 149.191C245.096 152.121 241.453 153.586 236.883 153.586C232.312 153.586 228.66 152.121 225.926 149.191C223.211 146.262 221.854 142.277 221.854 137.238V136.857ZM230.32 137.473C230.32 140.48 230.887 142.785 232.02 144.387C233.152 145.969 234.773 146.76 236.883 146.76C238.934 146.76 240.535 145.979 241.688 144.416C242.84 142.834 243.416 140.314 243.416 136.857C243.416 133.908 242.84 131.623 241.688 130.002C240.535 128.381 238.914 127.57 236.824 127.57C234.754 127.57 233.152 128.381 232.02 130.002C230.887 131.604 230.32 134.094 230.32 137.473ZM266.033 153H257.537V108H266.033V153ZM72.7031 180.344L83.6602 211.281L94.5586 180.344H106.102V223H97.2832V211.34L98.1621 191.213L86.6484 223H80.6133L69.1289 191.242L70.0078 211.34V223H61.2188V180.344H72.7031ZM131.59 223C131.199 222.238 130.916 221.291 130.74 220.158C128.689 222.443 126.023 223.586 122.742 223.586C119.637 223.586 117.059 222.688 115.008 220.891C112.977 219.094 111.961 216.828 111.961 214.094C111.961 210.734 113.201 208.156 115.682 206.359C118.182 204.562 121.785 203.654 126.492 203.635H130.389V201.818C130.389 200.354 130.008 199.182 129.246 198.303C128.504 197.424 127.322 196.984 125.701 196.984C124.275 196.984 123.152 197.326 122.332 198.01C121.531 198.693 121.131 199.631 121.131 200.822H112.664C112.664 198.986 113.23 197.287 114.363 195.725C115.496 194.162 117.098 192.941 119.168 192.062C121.238 191.164 123.562 190.715 126.141 190.715C130.047 190.715 133.143 191.701 135.428 193.674C137.732 195.627 138.885 198.381 138.885 201.936V215.676C138.904 218.684 139.324 220.959 140.145 222.502V223H131.59ZM124.588 217.111C125.838 217.111 126.99 216.838 128.045 216.291C129.1 215.725 129.881 214.973 130.389 214.035V208.586H127.225C122.986 208.586 120.73 210.051 120.457 212.98L120.428 213.479C120.428 214.533 120.799 215.402 121.541 216.086C122.283 216.77 123.299 217.111 124.588 217.111ZM153.182 191.301L153.445 194.963C155.711 192.131 158.748 190.715 162.557 190.715C165.916 190.715 168.416 191.701 170.057 193.674C171.697 195.646 172.537 198.596 172.576 202.521V223H164.109V202.727C164.109 200.93 163.719 199.631 162.938 198.83C162.156 198.01 160.857 197.6 159.041 197.6C156.658 197.6 154.871 198.615 153.68 200.646V223H145.213V191.301H153.182ZM197.391 223C197 222.238 196.717 221.291 196.541 220.158C194.49 222.443 191.824 223.586 188.543 223.586C185.438 223.586 182.859 222.688 180.809 220.891C178.777 219.094 177.762 216.828 177.762 214.094C177.762 210.734 179.002 208.156 181.482 206.359C183.982 204.562 187.586 203.654 192.293 203.635H196.189V201.818C196.189 200.354 195.809 199.182 195.047 198.303C194.305 197.424 193.123 196.984 191.502 196.984C190.076 196.984 188.953 197.326 188.133 198.01C187.332 198.693 186.932 199.631 186.932 200.822H178.465C178.465 198.986 179.031 197.287 180.164 195.725C181.297 194.162 182.898 192.941 184.969 192.062C187.039 191.164 189.363 190.715 191.941 190.715C195.848 190.715 198.943 191.701 201.229 193.674C203.533 195.627 204.686 198.381 204.686 201.936V215.676C204.705 218.684 205.125 220.959 205.945 222.502V223H197.391ZM190.389 217.111C191.639 217.111 192.791 216.838 193.846 216.291C194.9 215.725 195.682 214.973 196.189 214.035V208.586H193.025C188.787 208.586 186.531 210.051 186.258 212.98L186.229 213.479C186.229 214.533 186.6 215.402 187.342 216.086C188.084 216.77 189.1 217.111 190.389 217.111ZM209.959 206.916C209.959 202.053 211.111 198.137 213.416 195.168C215.74 192.199 218.865 190.715 222.791 190.715C226.268 190.715 228.973 191.906 230.906 194.289L231.258 191.301H238.934V221.945C238.934 224.719 238.299 227.131 237.029 229.182C235.779 231.232 234.012 232.795 231.727 233.869C229.441 234.943 226.766 235.48 223.699 235.48C221.375 235.48 219.109 235.012 216.902 234.074C214.695 233.156 213.025 231.965 211.893 230.5L215.643 225.344C217.752 227.707 220.311 228.889 223.318 228.889C225.564 228.889 227.312 228.283 228.562 227.072C229.812 225.881 230.438 224.182 230.438 221.975V220.275C228.484 222.482 225.916 223.586 222.732 223.586C218.924 223.586 215.838 222.102 213.475 219.133C211.131 216.145 209.959 212.189 209.959 207.268V206.916ZM218.426 207.531C218.426 210.402 219.002 212.658 220.154 214.299C221.307 215.92 222.889 216.73 224.9 216.73C227.479 216.73 229.324 215.764 230.438 213.83V200.5C229.305 198.566 227.479 197.6 224.959 197.6C222.928 197.6 221.326 198.43 220.154 200.09C219.002 201.75 218.426 204.23 218.426 207.531ZM260.057 223.586C255.408 223.586 251.619 222.16 248.689 219.309C245.779 216.457 244.324 212.658 244.324 207.912V207.092C244.324 203.908 244.939 201.066 246.17 198.566C247.4 196.047 249.139 194.113 251.385 192.766C253.65 191.398 256.229 190.715 259.119 190.715C263.455 190.715 266.863 192.082 269.344 194.816C271.844 197.551 273.094 201.428 273.094 206.447V209.904H252.908C253.182 211.975 254.002 213.635 255.369 214.885C256.756 216.135 258.504 216.76 260.613 216.76C263.875 216.76 266.424 215.578 268.26 213.215L272.42 217.873C271.15 219.67 269.432 221.076 267.264 222.092C265.096 223.088 262.693 223.586 260.057 223.586ZM259.09 197.57C257.41 197.57 256.043 198.137 254.988 199.27C253.953 200.402 253.289 202.023 252.996 204.133H264.773V203.459C264.734 201.584 264.227 200.139 263.25 199.123C262.273 198.088 260.887 197.57 259.09 197.57ZM295.74 199.24C294.588 199.084 293.572 199.006 292.693 199.006C289.49 199.006 287.391 200.09 286.395 202.258V223H277.928V191.301H285.926L286.16 195.08C287.859 192.17 290.213 190.715 293.221 190.715C294.158 190.715 295.037 190.842 295.857 191.096L295.74 199.24Z" fill="black"/>
<path d="M536.862 258.788C541.413 260.243 546.145 261.017 550.983 261.017C576.937 261.017 598.052 239.593 598.052 213.259C598.052 186.924 576.937 165.5 550.983 165.5C545.998 165.5 541.155 166.293 536.504 167.82C536.717 168.609 536.862 169.42 536.862 170.276V177.936C541.325 176.099 546.078 175.052 550.983 175.052C571.746 175.052 588.638 192.192 588.638 213.259C588.638 234.326 571.746 251.466 550.983 251.466C546.074 251.466 541.325 250.409 536.862 248.572V258.788Z" fill="black"/>
<path d="M419.19 227.586C419.19 222.318 423.412 218.034 428.603 218.034H456.845C462.037 218.034 466.259 222.318 466.259 227.586V228.703L527.448 191.452V170.276H358V191.452L419.19 228.703V227.586Z" fill="black"/>
<path d="M527.453 294.448H358V304H527.453V294.448Z" fill="black"/>
<path d="M527.453 284.897L527.448 202.59L466.259 239.841V246.69C466.259 251.958 462.037 256.241 456.845 256.241H428.603C423.412 256.241 419.19 251.958 419.19 246.69V239.841L358 202.59V284.897H527.453Z" fill="black"/>
<path d="M428.603 227.586H456.849V246.69H428.603V227.586Z" fill="black"/>
<path d="M579.224 213.259C579.224 197.455 566.558 184.603 550.983 184.603C545.97 184.603 541.151 186.003 536.862 188.523V237.982C541.151 240.515 545.961 241.914 550.983 241.914C566.558 241.914 579.224 229.062 579.224 213.259V213.259Z" fill="black"/>
<path d="M381.534 146.397C381.534 138.498 387.871 132.069 395.655 132.069H489.793C493.84 132.069 497.469 133.832 500.05 136.612L503.882 132.724L503.914 132.748V65.2069H372.121V160.724H381.534V146.397ZM494.5 103.414H419.19V93.8621H494.5V103.414ZM381.534 74.7586H494.5V84.3103H381.534V74.7586ZM409.776 93.8621V103.414H400.362V93.8621H409.776ZM381.534 93.8621H390.948V103.414H381.534V93.8621ZM381.534 112.966H494.5V122.517H381.534V112.966Z" fill="black"/>
<path d="M613.655 233.857L614.535 231.096L631 228.316V198.196L614.535 195.417L613.655 192.656C612.625 189.421 611.269 186.14 609.635 182.889L608.337 180.306L618.056 166.493L597.073 145.198L583.46 155.06L580.909 153.742C577.698 152.075 574.464 150.704 571.288 149.664L568.567 148.766L565.823 132.069H536.143L533.399 148.77L530.677 149.668C527.501 150.713 524.267 152.084 521.057 153.747L518.506 155.064L504.893 145.203L503.895 146.215C503.895 146.278 503.914 146.334 503.914 146.397V160.724H527.448C527.736 160.724 528.009 160.787 528.287 160.81C535.456 157.611 543.074 155.948 550.983 155.948C582.129 155.948 607.466 181.656 607.466 213.259C607.466 244.861 582.129 270.569 550.983 270.569C546.172 270.569 541.452 269.914 536.862 268.71V294.448H565.823L568.567 277.747L571.288 276.849C574.464 275.804 577.698 274.433 580.909 272.77L583.46 271.453L597.073 281.315L618.056 260.019L608.337 246.207L609.635 243.623C611.274 240.377 612.625 237.091 613.655 233.857V233.857ZM616.879 208.483H626.293V218.034H616.879V208.483ZM555.69 146.397H546.276V136.845H555.69V146.397ZM555.69 289.672H546.276V280.121H555.69V289.672ZM600.904 270.669L594.248 263.916L600.904 257.162L607.56 263.916L600.904 270.669ZM600.904 169.359L594.248 162.606L600.904 155.853L607.56 162.606L600.904 169.359Z" fill="black"/>
<path d="M513.328 74.7586H555.69V84.3103H513.328V93.8621H555.69V103.414H513.328V139.571L519.372 143.95C521.259 143.053 523.155 142.255 525.049 141.539L528.168 122.517H565.103V65.2069H527.448V27H433.31V55.6552H513.328V74.7586ZM452.138 46.1034H442.724V36.5517H452.138V46.1034ZM499.207 46.1034H461.552V36.5517H499.207V46.1034ZM508.621 46.1034V36.5517H518.034V46.1034H508.621Z" fill="black"/>
<path d="M536.862 33.7534V55.6552H558.448L536.862 33.7534Z" fill="black"/>
<path d="M394.707 134C392.114 134 390 136.141 390 138.776V153.103H493.552V138.776C493.552 136.141 491.437 134 488.845 134H394.707Z" fill="black"/>
<rect x="2.5" y="2.5" width="645" height="325" stroke="black" stroke-width="5"/>
</g>
<defs>
<filter id="filter0_b" x="-4" y="-4" width="658" height="338" filterUnits="userSpaceOnUse" color-interpolation-filters="sRGB">
<feFlood flood-opacity="0" result="BackgroundImageFix"/>
<feGaussianBlur in="BackgroundImage" stdDeviation="2"/>
<feComposite in2="SourceAlpha" operator="in" result="effect1_backgroundBlur"/>
<feBlend mode="normal" in="SourceGraphic" in2="effect1_backgroundBlur" result="shape"/>
</filter>
</defs>
</svg>
